<?xml version="1.0" encoding="UTF-8"?>
<!DOCTYPE svg PUBLIC "-//W3C//DTD SVG 1.1//EN" "http://www.w3.org/Graphics/SVG/1.1/DTD/svg11.dtd">
<svg xmlns="http://www.w3.org/2000/svg" version="1.1" width="16px" height="16px" style="shape-rendering:geometricPrecision; text-rendering:geometricPrecision; image-rendering:optimizeQuality; fill-rule:evenodd; clip-rule:evenodd" xmlns:xlink="http://www.w3.org/1999/xlink">
<g><path style="opacity:0.451" fill="#4db34b" d="M -0.5,-0.5 C 4.83333,-0.5 10.1667,-0.5 15.5,-0.5C 15.5,4.83333 15.5,10.1667 15.5,15.5C 10.1667,15.5 4.83333,15.5 -0.5,15.5C -0.5,10.1667 -0.5,4.83333 -0.5,-0.5 Z M 0.5,3.5 C 3.1873,3.33591 5.85397,3.50258 8.5,4C 7.62404,5.58601 6.62404,7.08601 5.5,8.5C 5.33094,7.60344 4.99761,6.60344 4.5,5.5C 0.550865,7.62596 0.884198,8.95929 5.5,9.5C 5.35055,10.552 5.51722,11.552 6,12.5C 7.18529,10.6228 8.18529,8.62284 9,6.5C 10.487,7.25286 10.6537,8.0862 9.5,9C 11.3185,9.78282 12.6518,9.28282 13.5,7.5C 7.91485,4.7924 8.24818,3.45906 14.5,3.5C 14.5,6.83333 14.5,10.1667 14.5,13.5C 9.83333,13.5 5.16667,13.5 0.5,13.5C 0.5,10.1667 0.5,6.83333 0.5,3.5 Z"/></g>
</svg>
